# xmcd
#
# Track frame offsets:
#	150
#	13243
#	27334
#	41186
#	51760
#	55836
#	76090
#	83753
#	106616
#	137427
#	141475
#
# Disc length: 2062 seconds
#
# Revision: 0
# Processed by: cddbd v1.5.2PL0 Copyright (c) Steve Scherf et al.
# Submitted via: EasyCDDAExtractor 4.6.9.1
#
DISCID=89080c0b
DTITLE=Marie-Jo Thério - Chasing Lydie [CD 1)
DYEAR=2011
DGENRE=Blues
TTITLE0=Going to the States
TTITLE1=Broadway Overture
TTITLE2=Lydie Lydie Lullaby
TTITLE3=Waltham, Mass.
TTITLE4=Working at the Waltham Watch
TTITLE5=Little Miss Little
TTITLE6=On River Street
TTITLE7=Digging the Ground
TTITLE8=This Town Is Cold
TTITLE9=Warmest Thoughts
TTITLE10=Clever Bubbly Aunty
EXTD=
EXTT0=
EXTT1=
EXTT2=
EXTT3=
EXTT4=
EXTT5=
EXTT6=
EXTT7=
EXTT8=
EXTT9=
EXTT10=
PLAYORDER=
